#!OML:ASF H:\Dans Jumps\Project 1\Capture day 1\Session 1\subject.ASF
:FULLY-SPECIFIED
:DEGREES
182
root 0.381214 17.3966 -14.4079 7.51421 -0.563248 -1.62042
lowerback 1.78992 -0.13512 0.0226957
upperback 3.32125 -0.21548 1.86965
thorax 2.41162 -0.133126 1.90642
lowerneck -14.7828 0.389328 -1.7751
upperneck 27.6393 0.8211 0.74522
head 11.4207 0.276668 0.693017
rclavicle 7.95139e-016 -9.14409e-015
rhumerus -17.5151 -9.27691 -85.2866
rradius 27.0234
rwrist 28.2664
rhand -19.6729 -26.4965
rfingers 7.12502
rthumb 6.65556 -56.3719
lclavicle 7.95139e-016 -9.14409e-015
lhumerus -17.3862 -9.91695 91.2735
lradius 23.0818
lwrist 7.71129
lhand -25.6448 -4.11089
lfingers 7.12502
lthumb 0.88883 25.867
rfemur -19.1055 -2.13769 19.5769
rtibia 27.9774
rfoot -15.0543 -3.68483
rtoes 6.49661
lfemur -18.0766 7.97396 -18.0647
ltibia 26.7976
lfoot -12.6289 7.64913
ltoes -5.40497
183
root 0.383551 17.377 -14.4372 7.60114 -0.574997 -1.63999
lowerback 2.03706 -0.129427 0.042538
upperback 3.38749 -0.206591 1.89264
thorax 2.34091 -0.128557 1.91951
lowerneck -14.8223 0.400869 -1.76228
upperneck 27.4152 0.850625 0.688512
head 11.3428 0.285864 0.672727
rclavicle -2.68359e-015 -3.57812e-015
rhumerus -17.5385 -9.31206 -85.1643
rradius 27.1191
rwrist 28.1466
rhand -19.7611 -26.5493
rfingers 7.12502
rthumb 6.57041 -56.4274
lclavicle -2.68359e-015 -3.57812e-015
lhumerus -17.5057 -10.1613 91.2102
lradius 23.4151
lwrist 8.2501
lhand -25.6751 -4.09232
lfingers 7.12502
lthumb 0.859533 25.8857
rfemur -19.6465 -2.12755 19.5973
rtibia 28.6068
rfoot -15.2351 -3.72525
rtoes 6.27822
lfemur -18.6556 8.05414 -18.0853
ltibia 27.5119
lfoot -12.8587 7.69162
ltoes -5.53221
184
root 0.385934 17.3556 -14.4675 7.69205 -0.588195 -1.67467
lowerback 2.29575 -0.120541 0.0781616
upperback 3.45416 -0.19315 1.91985
thorax 2.26407 -0.121376 1.92806
lowerneck -14.8621 0.410128 -1.74988
upperneck 27.1814 0.876643 0.632211
head 11.2617 0.293618 0.652202
rclavicle 3.47873e-015 -5.56597e-015
rhumerus -17.5711 -9.35977 -85.0308
rradius 27.2065
rwrist 28.0235
rhand -19.8769 -26.556
rfingers 7.12502
rthumb 6.45864 -56.4375
lclavicle 3.47873e-015 -5.56597e-015
lhumerus -17.6094 -10.3755 91.1416
lradius 23.7143
lwrist 8.73967
lhand -25.6993 -4.05133
lfingers 7.12502
lthumb 0.836187 25.9268
rfemur -20.2084 -2.11807 19.6346
rtibia 29.2588
rfoot -15.4287 -3.76451
rtoes 6.05839
lfemur -19.2708 8.14678 -18.0919
ltibia 28.2755
lfoot -13.1036 7.73231
ltoes -5.67134
185
root 0.388383 17.3322 -14.4988 7.78708 -0.603333 -1.7252
lowerback 2.5633 -0.10834 0.130925
upperback 3.52086 -0.17484 1.95027
thorax 2.18217 -0.111389 1.93023
lowerneck -14.8937 0.414183 -1.74552
upperneck 26.9343 0.89394 0.586512
head 11.1743 0.298094 0.635678
rclavicle -1.98785e-015 -7.95139e-016
rhumerus -17.6158 -9.41539 -84.8877
rradius 27.2833
rwrist 27.8866
rhand -20.0116 -26.5394
rfingers 7.12502
rthumb 6.32863 -56.4249
lclavicle -1.98785e-015 -7.95139e-016
lhumerus -17.6978 -10.5546 91.0659
lradius 23.9731
lwrist 9.17565
lhand -25.7293 -4.02834
lfingers 7.12502
lthumb 0.807208 25.9499
rfemur -20.7905 -2.11202 19.6893
rtibia 29.9322
rfoot -15.6337 -3.79996
rtoes 5.8268
lfemur -19.9223 8.24768 -18.0839
ltibia 29.0883
lfoot -13.36 7.77309
ltoes -5.81453
186
root 0.390834 17.3071 -14.531 7.88721 -0.618128 -1.79128
lowerback 2.83847 -0.0946414 0.199675
upperback 3.58664 -0.153935 1.98423
thorax 2.09505 -0.0997693 1.92696
lowerneck -14.92 0.414718 -1.74762
upperneck 26.6793 0.905262 0.549174
head 11.0833 0.300362 0.622482
rclavicle -6.4605e-015 1.59028e-014
rhumerus -17.6692 -9.47487 -84.7358
rradius 27.3418
rwrist 27.7367
rhand -20.1541 -26.5181
rfingers 7.12502
rthumb 6.191 -56.4077
lclavicle -6.4605e-015 1.59028e-014
lhumerus -17.7772 -10.6949 90.9839
lradius 24.1989
lwrist 9.5637
lhand -25.7732 -3.98995
lfingers 7.12502
lthumb 0.76482 25.9884
rfemur -21.3933 -2.11132 19.7617
rtibia 30.6271
rfoot -15.8493 -3.82962
rtoes 5.59094
lfemur -20.6098 8.35396 -18.0613
ltibia 29.9462
lfoot -13.6229 7.8149
ltoes -5.96241
187
root 0.393273 17.2801 -14.5641 7.99487 -0.63349 -1.8705
lowerback 3.11834 -0.0788444 0.281887
upperback 3.65248 -0.129546 2.02011
thorax 2.00538 -0.086136 1.91796
lowerneck -14.9486 0.41073 -1.75676
upperneck 26.4193 0.9089 0.522596
head 10.9912 0.299855 0.613388
rclavicle -2.98177e-015 -1.27222e-014
rhumerus -17.7266 -9.54537 -84.5751
rradius 27.3792
rwrist 27.5858
rhand -20.2891 -26.494
rfingers 7.12502
rthumb 6.06076 -56.3873
lclavicle -2.98177e-015 -1.27222e-014
lhumerus -17.8533 -10.8085 90.8967
lradius 24.3941
lwrist 9.92087
lhand -25.8528 -3.98754
lfingers 7.12502
lthumb 0.687909 25.9911
rfemur -22.0202 -2.11529 19.8489
rtibia 31.3438
rfoot -16.0715 -3.85185
rtoes 5.35785
lfemur -21.3323 8.46395 -18.0275
ltibia 30.8418
lfoot -13.8878 7.86004
ltoes -6.12015
188
root 0.395721 17.2513 -14.5978 8.10735 -0.652523 -1.95938
lowerback 3.40308 -0.0618939 0.372269
upperback 3.71995 -0.102922 2.05766
thorax 1.91475 -0.0712558 1.90594
lowerneck -14.9821 0.405302 -1.77065
upperneck 26.1579 0.90978 0.503101
head 10.9001 0.298534 0.607361
rclavicle -1.98785e-016 3.57812e-015
rhumerus -17.7891 -9.6192 -84.4077
rradius 27.4019
rwrist 27.4393
rhand -20.3993 -26.4882
rfingers 7.12502
rthumb 5.95434 -56.3845
lclavicle -1.98785e-016 3.57812e-015
lhumerus -17.9268 -10.8904 90.8041
lradius 24.5616
lwrist 10.245
lhand -25.971 -4.02515
lfingers 7.12502
lthumb 0.573726 25.9538
rfemur -22.6695 -2.12326 19.947
rtibia 32.0844
rfoot -16.2992 -3.86368
rtoes 5.13647
lfemur -22.0793 8.57518 -17.9853
ltibia 31.7655
lfoot -14.1557 7.91174
ltoes -6.28044
189
root 0.398191 17.2209 -14.6322 8.22258 -0.673334 -2.05657
lowerback 3.69519 -0.0441666 0.470791
upperback 3.78872 -0.0744059 2.09527
thorax 1.82147 -0.0552779 1.88923
lowerneck -15.0236 0.401259 -1.77426
upperneck 25.8982 0.911039 0.479608
head 10.8116 0.297921 0.59829
rclavicle 7.15625e-015 2.50469e-014
rhumerus -17.8544 -9.7153 -84.2339
rradius 27.4034
rwrist 27.3246
rhand -20.4869 -26.4889
rfingers 7.12502
rthumb 5.86977 -56.3876
lclavicle 7.15625e-015 2.50469e-014
lhumerus -18.0022 -10.9393 90.7055
lradius 24.7052
lwrist 10.5448
lhand -26.1155 -4.10626
lfingers 7.12502
lthumb 0.434164 25.873
rfemur -23.3396 -2.13903 20.0556
rtibia 32.8499
rfoot -16.5302 -3.86573
rtoes 4.92767
lfemur -22.8419 8.68648 -17.9349
ltibia 32.7066
lfoot -14.4266 7.96832
ltoes -6.43608
190
root 0.400679 17.189 -14.6672 8.34239 -0.698922 -2.15412
lowerback 3.99457 -0.0257263 0.56829
upperback 3.85841 -0.0441848 2.13118
thorax 1.72523 -0.0384876 1.87115
lowerneck -15.0772 0.399898 -1.76947
upperneck 25.6438 0.914873 0.45299
head 10.7278 0.298878 0.58716
rclavicle 6.06293e-015 1.74931e-014
rhumerus -17.9277 -9.81959 -84.0551
rradius 27.3986
rwrist 27.2393
rhand -20.5482 -26.4995
rfingers 7.12502
rthumb 5.81054 -56.3999
lclavicle 6.06293e-015 1.74931e-014
lhumerus -18.0769 -10.9561 90.6021
lradius 24.8163
lwrist 10.8155
lhand -26.2983 -4.24576
lfingers 7.12502
lthumb 0.257592 25.7338
rfemur -24.0335 -2.16166 20.1663
rtibia 33.64
rfoot -16.7642 -3.85796
rtoes 4.73109
lfemur -23.6156 8.79838 -17.8853
ltibia 33.655
lfoot -14.7022 8.03074
ltoes -6.59458
191
root 0.40316 17.1558 -14.7029 8.46816 -0.730877 -2.24578
lowerback 4.30021 -0.00667938 0.656952
upperback 3.92851 -0.0126067 2.1644
thorax 1.62614 -0.021224 1.85505
lowerneck -15.1364 0.401952 -1.75495
upperneck 25.3878 0.923011 0.418659
head 10.645 0.301813 0.572267
rclavicle 2.68359e-015 -5.1684e-015
rhumerus -18.0105 -9.93964 -83.8711
rradius 27.3879
rwrist 27.1965
rhand -20.5864 -26.526
rfingers 7.12502
rthumb 5.77364 -56.4273
lclavicle 2.68359e-015 -5.1684e-015
lhumerus -18.1521 -10.9297 90.4918
lradius 24.901
lwrist 11.0518
lhand -26.4736 -4.4223
lfingers 7.12502
lthumb 0.0883662 25.5574
rfemur -24.7526 -2.19183 20.2738
rtibia 34.453
rfoot -16.998 -3.84829
rtoes 4.51456
lfemur -24.3963 8.91356 -17.844
ltibia 34.6018
lfoot -14.9822 8.09728
ltoes -6.75386
192
root 0.405593 17.1215 -14.7394 8.60141 -0.770043 -2.32808
lowerback 4.61347 0.0130024 0.731288
upperback 3.99654 0.0202096 2.19521
thorax 1.52085 -0.00365899 1.84427
lowerneck -15.1907 0.406775 -1.73688
upperneck 25.1231 0.935091 0.379501
head 10.5583 0.30638 0.55557
rclavicle 3.27995e-015 6.36111e-015
rhumerus -18.1061 -10.0712 -83.6804
rradius 27.3728
rwrist 27.1985
rhand -20.6086 -26.5503
rfingers 7.12502
rthumb 5.75229 -56.4522
lclavicle 3.27995e-015 6.36111e-015
lhumerus -18.2273 -10.8583 90.3763
lradius 24.9549
lwrist 11.2581
lhand -26.6263 -4.56837
lfingers 7.12502
lthumb -0.0591897 25.4114
rfemur -25.4984 -2.22497 20.375
rtibia 35.2869
rfoot -17.2307 -3.84419
rtoes 4.2611
lfemur -25.1834 9.03652 -17.8154
ltibia 35.5412
lfoot -15.2633 8.16557
ltoes -6.92374
193
root 0.408047 17.0862 -14.7764 8.74076 -0.817162 -2.39402
lowerback 4.93598 0.0344949 0.784848
upperback 4.06365 0.0555063 2.22175
thorax 1.4096 0.0147118 1.84048
lowerneck -15.2447 0.413394 -1.7153
upperneck 24.8501 0.949519 0.336645
head 10.469 0.311985 0.537307
rclavicle 2.98177e-015 -1.03368e-014
rhumerus -18.2175 -10.2093 -83.4824
rradius 27.3597
rwrist 27.2344
rhand -20.6177 -26.5717
rfingers 7.12502
rthumb 5.7435 -56.4738
lclavicle 2.98177e-015 -1.03368e-014
lhumerus -18.3027 -10.7448 90.2566
lradius 24.9821
lwrist 11.4408
lhand -26.7553 -4.70262
lfingers 7.12502
lthumb -0.183733 25.277
rfemur -26.266 -2.25782 20.461
rtibia 36.1383
rfoot -17.4634 -3.85019
rtoes 3.97415
lfemur -25.9744 9.16517 -17.8085
ltibia 36.4708
lfoot -15.5418 8.24066
ltoes -7.11418
